<svg xmlns="http://www.w3.org/2000/svg" viewBox="0 0 295.52 49.56">
    <defs>
        <clipPath id="01">
        <path d="M.87,32.12Q5,29,8.8,25.69c2.54-2.23,5-4.42,7.32-6.57q.94-.89,1.62-1.62A7.42,7.42,0,0,0,18.84,16a6.7,6.7,0,0,0,.63-1.69,10.08,10.08,0,0,0,.21-2.22,5,5,0,0,0-.37-1.87,4.84,4.84,0,0,0-1-1.54,5,5,0,0,0-1.5-1A4.44,4.44,0,0,0,15,7.28H11.68a4.64,4.64,0,0,0-1.85.38A4.8,4.8,0,0,0,6.91,12.1v1.4H.5V10.88a10,10,0,0,1,.82-4,10.31,10.31,0,0,1,2.24-3.3A10.67,10.67,0,0,1,6.89,1.32a10,10,0,0,1,4-.82H16a10.08,10.08,0,0,1,4,.82A10.63,10.63,0,0,1,23.4,3.54a10.31,10.31,0,0,1,2.24,3.3,10,10,0,0,1,.82,4v.89A28.82,28.82,0,0,1,26.3,15a12.34,12.34,0,0,1-.63,2.76,10.38,10.38,0,0,1-1.36,2.53A20.32,20.32,0,0,1,22,22.86Q18.65,26,15,29.17T7.61,35H25.76V41H.87Z" transform="translate(-0.5 -0.5)"/>
        </clipPath>
        <clipPath id="02">
        <path d="M46.58.92a10.47,10.47,0,0,1,4.23.87,11,11,0,0,1,3.46,2.33,11.29,11.29,0,0,1,2.34,3.47,10.4,10.4,0,0,1,.87,4.23V30.06a10.48,10.48,0,0,1-.87,4.24,11,11,0,0,1-5.8,5.8,10.63,10.63,0,0,1-4.23.86H40.64a10.64,10.64,0,0,1-4.24-.86,11.24,11.24,0,0,1-3.46-2.34,11,11,0,0,1-2.32-3.46,10.8,10.8,0,0,1-.84-4.24V11.82a10.72,10.72,0,0,1,.84-4.23,10.8,10.8,0,0,1,5.78-5.8A10.48,10.48,0,0,1,40.64.92ZM50.69,13a4.68,4.68,0,0,0-.4-1.94,5.29,5.29,0,0,0-1-1.6A4.79,4.79,0,0,0,47.7,8.43,4.56,4.56,0,0,0,45.78,8H41.43a4.56,4.56,0,0,0-1.92.4A5.1,5.1,0,0,0,38,9.5a4.81,4.81,0,0,0-1.06,1.6A5,5,0,0,0,36.52,13V28.85a5.07,5.07,0,0,0,.37,1.94A4.67,4.67,0,0,0,38,32.38a5.31,5.31,0,0,0,1.56,1.08,4.71,4.71,0,0,0,1.92.39h4.35a4.71,4.71,0,0,0,1.92-.39,5,5,0,0,0,1.54-1.08,5.12,5.12,0,0,0,1-1.59,4.75,4.75,0,0,0,.4-1.94Z" transform="translate(-0.5 -0.5)"/>
        </clipPath>
        <clipPath id="03">
        <path d="M61.45,32.12q4.11-3.09,7.93-6.43t7.32-6.57c.62-.59,1.16-1.13,1.61-1.62a6.7,6.7,0,0,0,1.74-3.18,10.08,10.08,0,0,0,.21-2.22,4.77,4.77,0,0,0-.38-1.87,4.68,4.68,0,0,0-1-1.54,4.79,4.79,0,0,0-1.49-1,4.47,4.47,0,0,0-1.83-.38H72.26a4.6,4.6,0,0,0-1.85.38,4.81,4.81,0,0,0-1.52,1,4.68,4.68,0,0,0-1,1.54,4.76,4.76,0,0,0-.37,1.87v1.4H61.08V10.88a10,10,0,0,1,.82-4,10.31,10.31,0,0,1,2.24-3.3,10.63,10.63,0,0,1,3.32-2.22A10,10,0,0,1,71.51.5h5.1a10,10,0,0,1,4,.82A10.51,10.51,0,0,1,84,3.54a10.34,10.34,0,0,1,2.25,3.3,10,10,0,0,1,.82,4v.89A31.42,31.42,0,0,1,86.88,15a12.35,12.35,0,0,1-.64,2.76,10,10,0,0,1-1.35,2.53,20.46,20.46,0,0,1-2.3,2.57q-3.36,3.18-7,6.31T68.19,35H86.34V41H61.45Z" transform="translate(-0.5 -0.5)"/>
        </clipPath>
        <clipPath id="04">
        <path d="M115.81,8A12.15,12.15,0,0,1,116.3,14a9,9,0,0,1-3.07,5.22l-.37.42.37.37a10.11,10.11,0,0,1,2.34,3.56,13.34,13.34,0,0,1,0,10.62,10.89,10.89,0,0,1-2.13,3.36,9.94,9.94,0,0,1-3.2,2.34,12.65,12.65,0,0,1-2.69.89,16.28,16.28,0,0,1-2.67.35c-.88,0-1.78.07-2.69,0s-1.84,0-2.8,0a9.91,9.91,0,0,1-4-.82,10.46,10.46,0,0,1-6.27-9.61V29.6h6.32a4.73,4.73,0,0,0,.33,1.82A3.51,3.51,0,0,0,96.93,33a5.73,5.73,0,0,0,1.76.94,9.76,9.76,0,0,0,2,.42,14.3,14.3,0,0,0,1.94,0,24.41,24.41,0,0,0,2.48-.32,5.29,5.29,0,0,0,2.29-1,4.46,4.46,0,0,0,1.69-2.79,7.69,7.69,0,0,0-.1-3.57,4.94,4.94,0,0,0-4.3-3.7,17.36,17.36,0,0,0-3.74-.33H98.92v-6H101a17.36,17.36,0,0,0,3.74-.33,5.62,5.62,0,0,0,2.71-1.08,4,4,0,0,0,1.13-1.42,4.41,4.41,0,0,0,.09-3.65,4.55,4.55,0,0,0-1.22-1.66,4.82,4.82,0,0,0-1.77-.91,9.44,9.44,0,0,0-2.46-.42,13.08,13.08,0,0,0-2.71.14A8,8,0,0,0,98,8.1a5.13,5.13,0,0,0-1.82,1.57,4,4,0,0,0-.7,2.38H89.14V10.84A9.15,9.15,0,0,1,90.2,6.37,9.92,9.92,0,0,1,93,3.14a12.65,12.65,0,0,1,3.88-2A14.82,14.82,0,0,1,101.26.5H103l1,0,.63,0,1.48.11c.48,0,1,.12,1.42.21a13.18,13.18,0,0,1,2.58.89,10.4,10.4,0,0,1,2.34,1.5,11.27,11.27,0,0,1,2,2.15A10.34,10.34,0,0,1,115.81,8Z" transform="translate(-0.5 -0.5)"/>
        </clipPath>
        <clipPath id="05">
        <path d="M120.39,42.32V35.58h6.92v6.74Z" transform="translate(-0.5 -0.5)"/>
        </clipPath>
        <clipPath id="06">
        <path d="M163.24.92a10.4,10.4,0,0,1,4.23.87,10.92,10.92,0,0,1,5.8,5.8,10.4,10.4,0,0,1,.87,4.23V30.06a10.48,10.48,0,0,1-.87,4.24,10.9,10.9,0,0,1-2.34,3.46,11.12,11.12,0,0,1-3.46,2.34,10.56,10.56,0,0,1-4.23.86H157.3a10.64,10.64,0,0,1-4.24-.86,11.36,11.36,0,0,1-3.46-2.34,10.86,10.86,0,0,1-3.15-7.7V11.82a10.72,10.72,0,0,1,.84-4.23,10.87,10.87,0,0,1,2.31-3.47,11.16,11.16,0,0,1,3.46-2.33A10.48,10.48,0,0,1,157.3.92ZM167.36,13a4.84,4.84,0,0,0-.4-1.94,5.69,5.69,0,0,0-1.05-1.6,4.94,4.94,0,0,0-1.55-1.07,4.56,4.56,0,0,0-1.92-.4h-4.35a4.54,4.54,0,0,0-1.91.4,5,5,0,0,0-1.57,1.07,4.94,4.94,0,0,0-1.05,1.6,5,5,0,0,0-.38,1.94V28.85a5.08,5.08,0,0,0,.38,1.94,4.79,4.79,0,0,0,1.05,1.59,5.23,5.23,0,0,0,1.57,1.08,4.69,4.69,0,0,0,1.91.39h4.35a4.71,4.71,0,0,0,1.92-.39,5.14,5.14,0,0,0,1.55-1.08A5.5,5.5,0,0,0,167,30.79a4.92,4.92,0,0,0,.4-1.94Z" transform="translate(-0.5 -0.5)"/>
        </clipPath>
        <clipPath id="07">
        <path d="M191.87,14.53a16.55,16.55,0,0,1,5.66.92,11.13,11.13,0,0,1,7,6.92,16.77,16.77,0,0,1,.93,5.78q0,6.41-3.46,10t-10.43,3.6a19.26,19.26,0,0,1-5.61-.77,11.42,11.42,0,0,1-4.31-2.37,10.76,10.76,0,0,1-2.76-4,15.27,15.27,0,0,1-1-5.71h6.69a6.46,6.46,0,0,0,1.57,4.54q1.56,1.73,5.12,1.73a7.43,7.43,0,0,0,5.26-1.8,6.71,6.71,0,0,0,1.94-5.17A8.13,8.13,0,0,0,197.9,25a5.24,5.24,0,0,0-1.57-2.1A6.34,6.34,0,0,0,194,21.71a11.7,11.7,0,0,0-2.9-.35q-3.73,0-5.43,1.83h-6.82V1.39h24.69v7h-17.3v7.3a6,6,0,0,1,2.48-.87A20.06,20.06,0,0,1,191.87,14.53Z" transform="translate(-0.5 -0.5)"/>
        </clipPath>
        <clipPath id="08">
        <path d="M209.92,42.32V35.58h6.93v6.74Z" transform="translate(-0.5 -0.5)"/>
        </clipPath>
        <clipPath id="09">
        <path d="M235.51,32.12q4.11-3.09,7.93-6.43t7.32-6.57c.62-.59,1.16-1.13,1.61-1.62a7.05,7.05,0,0,0,1.1-1.49,6.7,6.7,0,0,0,.63-1.69,9.5,9.5,0,0,0,.21-2.22,4.76,4.76,0,0,0-.37-1.87,4.68,4.68,0,0,0-1-1.54,4.91,4.91,0,0,0-1.49-1,4.47,4.47,0,0,0-1.83-.38h-3.27a4.57,4.57,0,0,0-1.85.38,4.81,4.81,0,0,0-2.55,2.57,4.77,4.77,0,0,0-.38,1.87v1.4h-6.4V10.88a10.16,10.16,0,0,1,.81-4,10.51,10.51,0,0,1,2.25-3.3,10.63,10.63,0,0,1,3.32-2.22,10,10,0,0,1,4-.82h5.1a10,10,0,0,1,4,.82,10.49,10.49,0,0,1,5.57,5.52,10.17,10.17,0,0,1,.82,4v.89a28.68,28.68,0,0,1-.17,3.23,12.34,12.34,0,0,1-.63,2.76A10,10,0,0,1,259,20.29a20.46,20.46,0,0,1-2.3,2.57q-3.36,3.18-7,6.31T242.25,35H260.4V41H235.51Z" transform="translate(-0.5 -0.5)"/>
        </clipPath>
        <clipPath id="10">
        <path d="M264.33,1.62H291L284,41h-7.49l5.62-32.13H271.72v5.94h-7.39Z" transform="translate(-0.5 -0.5)"/>
        </clipPath>
    </defs>
	<g class="svg-bg">
		<path clip-path="url(#01)" d="M3.28,12.72A8.11,8.11,0,0,1,4.37,6.61c1.74-2.51,4.56-3,6.32-3.27,1.35-.22,6-1,9.39,2.18a9.91,9.91,0,0,1,2.83,7c0,1.06-.33,3.77-9.16,12.22,0,0-2.31,2.22-10,9C3,35.74,2.34,38.2,3.28,38.9s2.49-.39,3.49-.87c4.55-2.18,7.77,2.13,14,1.31.41-.05,1.36-.36,2.84-.65,1.69-.34,3.07-.51,3.92-.6" transform="translate(3.7 3.5)"/>
		<path clip-path="url(#02)" d="M42.55,4.87a11.12,11.12,0,0,0-5.46,2.4C32.63,11.1,33.17,18,33.6,23.41c.48,6,.74,9.33,3.49,11.79,4.36,3.88,12.54,3.43,15.71-.44,1.37-1.66,1-2.94,1.09-10.69.2-12.18,1.26-14.25-.87-16.58C50.38,4.59,45.58,4.32,42.55,4.87Z" transform="translate(3.7 3.5)"/>
		<path clip-path="url(#03)" d="M64.8,16A13.61,13.61,0,0,1,65,9.89c.27-1,1.2-4.39,3.49-5.89,4.44-2.91,14.36,1,15.06,5.67,1,6.7-17.32,14.84-19.2,24-.16.76-.48,2.42.43,3.49,1.35,1.57,4.25.55,8.29.44,4.38-.13,5.2,1.56,9.17,1.3a17.83,17.83,0,0,0,4.8-1" transform="translate(3.7 3.5)"/>
		<path clip-path="url(#04)" d="M92.51,15.12c-.14-1.82-.29-3.63-.43-5.45.22-.34,4.31-6.28,10.9-5.89,5.37.32,10.48,4.71,10,7.85-.49,3.47-7.56,3.93-7.64,7-.07,2.82,5.93,3.25,7.42,7.86,1.07,3.3-.6,7.43-3.49,9.82-4.2,3.47-9.39,1.89-10.47,1.52s-5.26-1.71-6.76-5.89a9.14,9.14,0,0,1-.22-5.23" transform="translate(3.7 3.5)"/>
		<path clip-path="url(#05)" d="M123.71,38.25l.22,2" transform="translate(3.7 3.5)"/>
		<path clip-path="url(#06)" d="M161.24,5.09c-3.42-.21-7.41-.46-9.6,2-1.46,1.61-1.21,3.41-1.31,7.64-.28,11.83-2.6,12.65-.87,16.36,1.87,4,6.83,7.91,12.22,7.2a11.52,11.52,0,0,0,8.72-6.76c1.29-3,0-4.08,0-10.91-.05-8.24,1.73-10.47-.22-12.88C168.42,5.53,165.34,5.34,161.24,5.09Z" transform="translate(3.7 3.5)"/>
		<path clip-path="url(#07)" d="M204.06,4.7l-2.89.17q-8.4.45-16.59.65c-3.45,9.34-2.29,11.7-1.3,12.44.65.49,1.32.33,3.92.22,4.89-.22,7.34-.32,9,.22,3.79,1.26,7.24,6.46,6.33,11.56a10.83,10.83,0,0,1-5,7,11.53,11.53,0,0,1-11.35.44c-1-.54-4.8-2.79-5.23-6.77a7.06,7.06,0,0,1,.27-2.83" transform="translate(3.7 3.5)"/>
		<path clip-path="url(#08)" d="M213.6,38.69l.88,1.52" transform="translate(3.7 3.5)"/>
		<path clip-path="url(#09)" d="M236.51,16.43a15.12,15.12,0,0,1,1.53-5c.64-1.24,3.12-6.09,8.29-7.2,4.33-.92,9.92.89,11.56,4.8,2,4.71-2.68,10.29-3.92,11.79-5.53,6.63-11.66,5.56-14.62,12-.93,2-1.72,5.14-.44,6.32s3.77-.3,7.64-1.09,7.51-.22,11.56.22c1.87.2,3.44.45,4.58.65" transform="translate(3.7 3.5)"/>
		<path clip-path="url(#10)" d="M267.49,16.21c.14-1.15.32-2.84.44-4.91.24-4,0-4.68.65-5.45,1.32-1.53,3-.68,8.3-.65,5.85,0,6.61-.65,7.63.21,1.44,1.22.87,3.33-.87,13.31,0,0-2,11.52-2.84,18.55,0,.11-.32,2.78-.32,2.78,0,.82.1,1.64.16,2.45" transform="translate(3.7 3.5)"/>
		<!-- <path clip-path="url(#)" d="M389-1.35" transform="translate(3.7 3.5)"/> -->
	</g>
	
	<g class="svg-main">
		<path clip-path="url(#01)" d="M3.28,12.72A8.11,8.11,0,0,1,4.37,6.61c1.74-2.51,4.56-3,6.32-3.27,1.35-.22,6-1,9.39,2.18a9.91,9.91,0,0,1,2.83,7c0,1.06-.33,3.77-9.16,12.22,0,0-2.31,2.22-10,9C3,35.74,2.34,38.2,3.28,38.9s2.49-.39,3.49-.87c4.55-2.18,7.77,2.13,14,1.31.41-.05,1.36-.36,2.84-.65,1.69-.34,3.07-.51,3.92-.6" transform="translate(3.7 3.5)"/>
		<path clip-path="url(#02)" d="M42.55,4.87a11.12,11.12,0,0,0-5.46,2.4C32.63,11.1,33.17,18,33.6,23.41c.48,6,.74,9.33,3.49,11.79,4.36,3.88,12.54,3.43,15.71-.44,1.37-1.66,1-2.94,1.09-10.69.2-12.18,1.26-14.25-.87-16.58C50.38,4.59,45.58,4.32,42.55,4.87Z" transform="translate(3.7 3.5)"/>
		<path clip-path="url(#03)" d="M64.8,16A13.61,13.61,0,0,1,65,9.89c.27-1,1.2-4.39,3.49-5.89,4.44-2.91,14.36,1,15.06,5.67,1,6.7-17.32,14.84-19.2,24-.16.76-.48,2.42.43,3.49,1.35,1.57,4.25.55,8.29.44,4.38-.13,5.2,1.56,9.17,1.3a17.83,17.83,0,0,0,4.8-1" transform="translate(3.7 3.5)"/>
		<path clip-path="url(#04)" d="M92.51,15.12c-.14-1.82-.29-3.63-.43-5.45.22-.34,4.31-6.28,10.9-5.89,5.37.32,10.48,4.71,10,7.85-.49,3.47-7.56,3.93-7.64,7-.07,2.82,5.93,3.25,7.42,7.86,1.07,3.3-.6,7.43-3.49,9.82-4.2,3.47-9.39,1.89-10.47,1.52s-5.26-1.71-6.76-5.89a9.14,9.14,0,0,1-.22-5.23" transform="translate(3.7 3.5)"/>
		<path clip-path="url(#05)" d="M123.71,38.25l.22,2" transform="translate(3.7 3.5)"/>
		<path clip-path="url(#06)" d="M161.24,5.09c-3.42-.21-7.41-.46-9.6,2-1.46,1.61-1.21,3.41-1.31,7.64-.28,11.83-2.6,12.65-.87,16.36,1.87,4,6.83,7.91,12.22,7.2a11.52,11.52,0,0,0,8.72-6.76c1.29-3,0-4.08,0-10.91-.05-8.24,1.73-10.47-.22-12.88C168.42,5.53,165.34,5.34,161.24,5.09Z" transform="translate(3.7 3.5)"/>
		<path clip-path="url(#07)" d="M204.06,4.7l-2.89.17q-8.4.45-16.59.65c-3.45,9.34-2.29,11.7-1.3,12.44.65.49,1.32.33,3.92.22,4.89-.22,7.34-.32,9,.22,3.79,1.26,7.24,6.46,6.33,11.56a10.83,10.83,0,0,1-5,7,11.53,11.53,0,0,1-11.35.44c-1-.54-4.8-2.79-5.23-6.77a7.06,7.06,0,0,1,.27-2.83" transform="translate(3.7 3.5)"/>
		<path clip-path="url(#08)" d="M213.6,38.69l.88,1.52" transform="translate(3.7 3.5)"/>
		<path clip-path="url(#09)" d="M236.51,16.43a15.12,15.12,0,0,1,1.53-5c.64-1.24,3.12-6.09,8.29-7.2,4.33-.92,9.92.89,11.56,4.8,2,4.71-2.68,10.29-3.92,11.79-5.53,6.63-11.66,5.56-14.62,12-.93,2-1.72,5.14-.44,6.32s3.77-.3,7.64-1.09,7.51-.22,11.56.22c1.87.2,3.44.45,4.58.65" transform="translate(3.7 3.5)"/>
		<path clip-path="url(#10)" d="M267.49,16.21c.14-1.15.32-2.84.44-4.91.24-4,0-4.68.65-5.45,1.32-1.53,3-.68,8.3-.65,5.85,0,6.61-.65,7.63.21,1.44,1.22.87,3.33-.87,13.31,0,0-2,11.52-2.84,18.55,0,.11-.32,2.78-.32,2.78,0,.82.1,1.64.16,2.45" transform="translate(3.7 3.5)"/>
		<!-- <path clip-path="url(#)" d="M389-1.35" transform="translate(3.7 3.5)"/> -->
	</g>
</svg>