<svg 
    xmlns="http://www.w3.org/2000/svg" 
    viewBox="0 0 734 1000"
>
<path class="path wedding" 
  d="m 341.08469,610.05431 c 57.00985,-3.89811 80.8858,-7.79621 97.45276,-25.82498 16.56696,-18.02876 19.00327,-51.64997 32.15942,-76.01315 13.15611,-24.3632 82.34759,-101.35089 61.39523,-132.04851 -20.95235,-30.69762 -52.62448,-28.26128 -56.52259,-49.70089 -3.89813,-21.43961 -18.51604,-40.44291 -21.43961,-56.03536 -2.92359,-15.59244 -11.20709,-82.83485 -31.67216,-102.3254 -20.46507,-19.49055 -51.16269,-35.08299 -72.11504,-31.18488 -20.95236,3.89811 -51.16272,25.82498 -59.44619,43.36648 -8.28349,17.54149 -11.69434,45.8028 -21.92686,55.54808 -10.23256,9.74527 -23.87594,6.82169 -19.00331,20.46508 4.87264,13.64338 25.33772,66.26787 21.92687,75.5259 -3.41085,9.25801 -53.11175,2.92357 -52.62448,54.08628 0.48726,51.16269 15.59244,59.93345 17.05423,81.37306 1.46179,21.43961 -0.97453,71.62778 8.28348,102.3254 9.25802,30.69762 38.49383,43.36648 38.98112,64.31884 0.48725,20.95232 -1.4618,42.39193 11.69432,49.70089 13.15614,7.30895 34.59572,23.87595 32.15941,29.7231 -2.43631,5.84716 -35.08298,13.64338 -33.13393,24.85047 1.94906,11.20706 6.33442,27.28676 14.13066,26.79951 7.79621,-0.48728 9.74526,2.43631 2.92356,11.20706 -6.8217,8.77075 12.18161,19.00327 22.90141,9.74527 10.71981,-9.25801 28.26131,-9.25801 25.33772,-2.92357 -2.9236,6.33442 -10.23255,21.92687 -5.35991,27.28677 4.87265,5.3599 0.97454,28.74857 10.23255,34.59572 9.25801,5.84716 8.77076,13.6434 23.87592,11.20707 15.10517,-2.43631 27.77403,-10.71981 25.33772,-19.97782 -2.43631,-9.25801 -15.59245,-15.59245 -2.43631,-10.23255 13.15612,5.35991 20.46507,-7.30895 21.43961,-1.94905 0.97451,5.3599 38.00658,-1.4618 37.51932,-12.66886 -0.48728,-11.20706 -11.69435,-12.1816 -7.79624,-19.00327 3.89811,-6.8217 -0.48726,-18.02876 3.89811,-21.9269 4.38539,-3.8981 -7.30896,-28.26128 -12.18158,-27.77402 -4.87264,0.48725 -15.10519,-0.48726 -15.59245,-6.33442 -0.48726,-5.84718 -9.25801,-16.07971 -6.33444,-21.92689 2.92359,-5.84716 7.30895,-10.23252 3.89813,-12.66886 -3.41085,-2.43631 -14.61794,0 -19.49056,-1.4618 -4.87264,-1.46177 -12.1816,-8.28347 -11.69434,-17.54147 0.48725,-9.25801 -4.38536,-17.54151 -9.74527,-13.6434 -5.3599,3.8981 -30.69762,3.8981 -32.15941,-2.9236 -1.4618,-6.82167 -2.9236,-30.69761 -7.30896,-33.62118 -4.38539,-2.92359 -44.34102,-56.52262 -44.34102,-68.21694 0,-11.69434 56.52262,-17.05425 61.88253,-22.41415 5.3599,-5.3599 39.46837,-143.25555 61.39523,-153.97535 21.92687,-10.71981 18.51602,-51.64998 30.21037,-54.08629 11.69432,-2.43633 14.13063,13.64338 17.05422,16.56697 2.92359,2.92356 18.51602,4.38536 24.85046,8.77075 6.33441,4.38536 17.5415,14.61791 19.49056,20.46507 1.94905,5.84716 7.30895,17.54151 -3.89811,38.49386 -11.20709,20.95233 30.21034,36.54478 25.33772,44.82825 -4.87265,8.28349 -35.57027,0.48728 -38.00661,6.8217 -2.43631,6.33444 -16.07968,26.31225 -20.95232,26.31225 -4.87265,0 -14.61791,47.75184 -8.2835,55.06083 6.33444,7.30895 63.34429,24.36317 69.19148,28.26128 5.84716,3.89811 136.43388,84.29664 155.43715,104.27446 19.0033,19.97781 -27.77403,3.41085 -27.77403,3.41085 0,0 -70.16599,-61.39524 -101.35089,-70.16599 -31.18488,-8.77075 -77.9622,-81.86031 -108.17257,-48.72638 -30.21036,33.13393 -49.70089,58.47167 -83.80936,56.52259 -34.10847,-1.94905 -72.11507,-26.31223 -104.27446,-18.51602 -32.15942,7.79621 -56.52262,31.18488 -57.49714,46.77733 -0.97453,15.59245 0.97452,35.08301 -11.69433,35.08301 -12.66887,0 -26.31225,-1.94905 -32.15942,-12.66886 -5.84716,-10.71981 -3.89811,-16.56699 -15.59244,-10.71981 -11.69433,5.84716 -24.36319,15.59243 -16.56697,-3.89813 7.79622,-19.49053 8.77075,-30.21033 23.38866,-42.87919 14.61792,-12.66886 42.87922,-41.90471 56.52261,-45.80282 13.64338,-3.8981 86.73296,-2.92356 82.83485,-22.41412 -3.8981,-19.49056 -30.21036,-66.26789 -17.5415,-82.83485 12.66886,-16.56699 36.05752,-70.16599 39.95563,-89.65655 3.8981,-19.49056 -27.28677,-38.98111 -38.98109,-38.00657 -11.69435,0.97451 -62.36978,7.79621 -66.26789,39.95562 -3.89811,32.15942 22.41413,57.49714 23.38866,79.91126 0.97453,22.41415 -10.7198,70.16599 2.92358,101.35089 13.64339,31.18488 45.80281,53.599 45.80281,68.21694 0,14.61791 -4.87265,40.93014 13.64337,58.47165 18.51604,17.5415 33.13396,-0.97451 47.75187,-4.87265 14.61791,-3.8981 36.05752,-11.69432 36.05752,-4.87262 0,6.8217 4.87265,33.13393 12.66886,31.18488 7.79621,-1.94905 28.26131,6.8217 26.31225,18.51602 -1.94905,11.69434 -12.66885,1.94905 -27.28677,3.89813 -14.61793,1.94905 -23.38866,14.61791 -34.10846,5.84716 -10.71981,-8.77075 -28.26131,-14.61791 -14.61794,-21.43961 13.6434,-6.8217 18.51604,-18.51602 6.8217,-19.49056 -11.69432,-0.97454 -35.08299,-2.92359 -31.18488,5.84716 3.89811,8.77075 12.66886,15.59245 4.87265,20.4651 -7.79624,4.87262 -28.26131,1.94905 -27.2868,9.74526 0.97454,7.79622 30.21036,-0.97451 18.51604,5.84716 -11.69434,6.8217 -25.33771,26.31226 -11.69434,17.54151 13.6434,-8.77076 24.3632,-22.41413 20.4651,-12.66886 -3.89814,9.74526 -30.21037,24.3632 -17.54151,25.33771 12.66886,0.97454 16.56697,-16.56696 21.43961,-16.56696 4.87265,0 -3.8981,10.71981 0,15.59245 3.89811,4.87262 23.38867,-6.8217 22.41413,12.66886 -0.97452,19.49053 6.8217,32.15942 12.66885,30.21034 5.84719,-1.94906 -15.59242,11.69434 -9.74526,17.5415 5.84716,5.84716 10.7198,28.26131 22.41412,21.43961 11.69435,-6.8217 10.71981,-23.38866 3.89814,-29.23582 -6.8217,-5.84716 -2.9236,-1.94906 4.87262,-13.6434 7.79623,-11.69432 15.59245,-13.64337 7.79623,-18.51602 -7.79623,-4.87264 -11.69434,-5.84716 0,-11.69434 11.69432,-5.84716 48.72638,-6.82168 12.66886,-14.61791 -36.05752,-7.79622 -12.66886,-24.36318 -6.8217,-24.36318 5.84716,0 44.82828,10.7198 39.95563,21.43961 -4.87264,10.7198 -70.16599,-0.97454 -79.91125,-5.84719 -9.7453,-4.87262 -26.31226,-19.49053 -24.36321,-2.92356 1.94905,16.56696 -64.31883,18.51601 -68.21694,33.13393 0,0 -0.97452,17.54151 -8.77074,25.33773 -7.79622,7.79622 81.86033,-30.21036 51.64997,-6.82169 -30.21036,23.38866 -53.59902,54.57355 -53.59902,76.01316 0,21.43961 2.92358,86.73296 14.61791,99.40182 11.69433,12.66886 41.90469,31.18487 65.29336,13.64339 23.38866,-17.5415 46.77732,-76.01316 24.36319,-58.47166 -22.41414,17.54149 -13.64339,62.36977 13.64338,49.70091 27.28678,-12.66886 108.17258,-45.8028 94.52919,-74.06411 -13.64339,-28.2613 -100.37635,23.38867 -38.00658,28.26131 62.36977,4.87264 58.47166,-266.04606 25.33772,-279.68945 -33.13394,-13.64338 -105.24899,33.13395 -32.15941,25.33772 73.08957,-7.79622 194.90553,-344.00826 153.97537,-336.21204 -40.93016,7.79622 -65.29336,51.64996 -35.083,51.64996 30.21036,0 28.2613,-232.91211 -96.47824,-268.96963 -124.73954,-36.057529 -235.83569,12.66886 -239.73381,69.19146 -3.89811,56.52261 50.67544,15.59244 48.72639,6.82169 -1.94906,-8.77075 -93.55466,-9.74527 -81.86033,30.21036 11.69434,39.95564 19.49056,110.12163 40.93017,90.63108 21.4396,-19.49056 -59.44619,-76.98769 -54.57355,-34.10847 4.87263,42.87921 12.66886,313.79791 32.15941,265.07152 19.49055,-48.72638 -17.5415,-126.68859 -45.8028,-43.85374 -28.2613,82.83485 -74.064105,168.59329 -44.82827,181.26215 29.23583,12.66886 28.2613,-29.23583 48.72638,0 20.46508,29.23583 73.08957,55.54807 86.73296,25.33772 13.64339,-30.21036 18.51603,-84.78391 0.97453,-62.36978 -17.5415,22.41414 -108.17257,153.00085 -111.09615,236.81023 -2.92359,83.80938 -87.707496,-39.95563 -56.52261,-50.67544 31.18489,-10.7198 21.43961,169.56779 21.43961,169.56779"/></svg>
